<svg version="1.1" id="Layer_1" xmlns="http://www.w3.org/2000/svg" xmlns:xlink="http://www.w3.org/1999/xlink" x="0px" y="0px"
	 width="100%" viewBox="0 0 512 512" enable-background="new 0 0 512 512" xml:space="preserve">
<path fill="#000101" opacity="1.000000" stroke="none" 
	d="
M1.000000,199.000000 
	C1.000000,132.666672 1.000000,66.833336 1.000000,1.000000 
	C171.666672,1.000000 342.333344,1.000000 513.000000,1.000000 
	C513.000000,171.666672 513.000000,342.333344 513.000000,513.000000 
	C342.333344,513.000000 171.666672,513.000000 1.000000,513.000000 
	C1.000000,408.500000 1.000000,304.000000 1.000000,199.000000 
M33.017387,261.886963 
	C34.310501,274.411499 34.784573,287.085815 37.042233,299.433990 
	C45.616402,346.330017 67.660797,386.235901 102.084496,419.024170 
	C139.659271,454.813721 184.421585,475.372986 236.288559,480.131683 
	C262.000122,482.490631 287.448395,481.073120 312.368469,474.299683 
	C383.038788,455.090973 433.457916,411.876953 463.192627,345.010590 
	C475.311798,317.757538 481.464935,288.993347 480.962982,258.054047 
	C480.299164,245.866089 480.662140,233.515625 478.764038,221.523010 
	C474.421356,194.084717 465.239288,168.217560 451.085846,144.131500 
	C438.327698,122.419937 422.540527,103.405479 403.515686,86.905838 
	C385.507202,71.287651 365.460327,59.230949 343.598877,49.840370 
	C321.703918,40.435413 298.827332,34.731838 275.251526,33.322910 
	C258.662872,32.331551 241.846375,33.746056 225.220291,35.142216 
	C204.207794,36.906719 184.278198,43.389565 165.136719,52.036209 
	C134.729004,65.772095 108.561829,85.200455 86.753136,110.613960 
	C71.544945,128.335968 59.433147,147.840973 50.324150,169.269135 
	C37.870316,198.565750 31.658075,229.044250 33.017387,261.886963 
z"/>
<path fill="#5294E2" opacity="1.000000" stroke="none" 
	d="
M480.833435,258.982147 
	C481.464935,288.993347 475.311798,317.757538 463.192627,345.010590 
	C433.457916,411.876953 383.038788,455.090973 312.368469,474.299683 
	C287.448395,481.073120 262.000122,482.490631 236.288559,480.131683 
	C184.421585,475.372986 139.659271,454.813721 102.084496,419.024170 
	C67.660797,386.235901 45.616402,346.330017 37.042233,299.433990 
	C34.784573,287.085815 34.310501,274.411499 33.264824,261.059937 
	C35.493687,246.925659 36.451557,233.367462 39.641090,220.356339 
	C50.941452,174.258530 74.347969,135.300095 110.348915,104.056618 
	C128.750244,88.086975 148.998047,75.121117 171.586838,66.029762 
	C204.494431,52.785366 238.535828,46.946869 274.149292,49.794312 
	C302.607391,52.069653 329.589233,59.190731 355.107086,71.674889 
	C385.459717,86.524368 411.250122,107.242096 432.268555,133.785202 
	C455.465515,163.079437 470.534760,196.069595 477.058441,232.881256 
	C478.591644,241.532852 479.589355,250.279327 480.833435,258.982147 
M320.100037,171.123734 
	C324.157379,145.353027 312.644836,120.197922 290.513580,106.476768 
	C268.618378,92.901955 240.403107,93.669838 219.518799,109.253365 
	C198.593185,124.867714 190.395599,146.141312 193.457870,172.695724 
	C193.853973,178.956833 193.454071,185.392685 194.783432,191.448944 
	C200.668945,218.262375 222.844070,237.515076 250.931442,240.846954 
	C276.074005,243.829483 302.245667,229.386078 314.129730,205.644897 
	C319.415710,195.084885 322.543243,183.970657 320.100037,171.123734 
M145.063019,358.519806 
	C142.706955,371.541565 148.688568,380.732086 158.341827,388.589691 
	C173.142715,400.637390 190.134659,407.850586 208.535492,411.962433 
	C235.424774,417.971069 262.586517,418.660553 289.809723,414.837311 
	C311.086273,411.849243 331.511658,406.087158 349.313324,393.389069 
	C361.584564,384.635895 372.464966,374.966644 368.955505,356.625854 
	C368.818268,345.469757 369.911041,334.132111 368.296783,323.193970 
	C364.525391,297.639648 348.595825,280.913757 325.976624,270.005310 
	C308.734161,261.689850 290.227325,258.477264 271.310150,257.454102 
	C244.475861,256.002716 217.923401,257.533752 192.748154,268.024841 
	C167.891342,278.383240 149.982086,295.432831 145.742142,323.098389 
	C144.019043,334.341553 145.226868,346.033875 145.063019,358.519806 
z"/>
<path fill="#75A9E8" opacity="1.000000" stroke="none" 
	d="
M480.898193,258.518097 
	C479.589355,250.279327 478.591644,241.532852 477.058441,232.881256 
	C470.534760,196.069595 455.465515,163.079437 432.268555,133.785202 
	C411.250122,107.242096 385.459717,86.524368 355.107086,71.674889 
	C329.589233,59.190731 302.607391,52.069653 274.149292,49.794312 
	C238.535828,46.946869 204.494431,52.785366 171.586838,66.029762 
	C148.998047,75.121117 128.750244,88.086975 110.348915,104.056618 
	C74.347969,135.300095 50.941452,174.258530 39.641090,220.356339 
	C36.451557,233.367462 35.493687,246.925659 33.342987,260.596924 
	C31.658075,229.044250 37.870316,198.565750 50.324150,169.269135 
	C59.433147,147.840973 71.544945,128.335968 86.753136,110.613960 
	C108.561829,85.200455 134.729004,65.772095 165.136719,52.036209 
	C184.278198,43.389565 204.207794,36.906719 225.220291,35.142216 
	C241.846375,33.746056 258.662872,32.331551 275.251526,33.322910 
	C298.827332,34.731838 321.703918,40.435413 343.598877,49.840370 
	C365.460327,59.230949 385.507202,71.287651 403.515686,86.905838 
	C422.540527,103.405479 438.327698,122.419937 451.085846,144.131500 
	C465.239288,168.217560 474.421356,194.084717 478.764038,221.523010 
	C480.662140,233.515625 480.299164,245.866089 480.898193,258.518097 
z"/>
<path fill="#FFFFFF" opacity="1.000000" stroke="none" 
	d="
M145.101120,357.521851 
	C145.226868,346.033875 144.019043,334.341553 145.742142,323.098389 
	C149.982086,295.432831 167.891342,278.383240 192.748154,268.024841 
	C217.923401,257.533752 244.475861,256.002716 271.310150,257.454102 
	C290.227325,258.477264 308.734161,261.689850 325.976624,270.005310 
	C348.595825,280.913757 364.525391,297.639648 368.296783,323.193970 
	C369.911041,334.132111 368.818268,345.469757 368.647400,357.280762 
	C356.658356,375.662292 339.364685,385.654236 319.823456,391.866119 
	C283.811005,403.313995 247.116226,403.803650 210.346771,396.217316 
	C184.313370,390.846039 160.999847,380.276947 145.101120,357.521851 
z"/>
<path fill="#FEFEFF" opacity="1.000000" stroke="none" 
	d="
M193.833298,171.959457 
	C190.395599,146.141312 198.593185,124.867714 219.518799,109.253365 
	C240.403107,93.669838 268.618378,92.901955 290.513580,106.476768 
	C312.644836,120.197922 324.157379,145.353027 320.033356,171.930969 
	C319.685913,173.868179 319.402435,174.997467 319.124725,176.128189 
	C310.600189,210.839142 275.681305,232.143051 241.078293,222.836624 
	C215.087784,215.846558 199.569229,198.218231 193.833298,171.959457 
z"/>
<path fill="#4377B6" opacity="1.000000" stroke="none" 
	d="
M145.082062,358.020813 
	C160.999847,380.276947 184.313370,390.846039 210.346771,396.217316 
	C247.116226,403.803650 283.811005,403.313995 319.823456,391.866119 
	C339.364685,385.654236 356.658356,375.662292 368.621460,357.717377 
	C372.464966,374.966644 361.584564,384.635895 349.313324,393.389069 
	C331.511658,406.087158 311.086273,411.849243 289.809723,414.837311 
	C262.586517,418.660553 235.424774,417.971069 208.535492,411.962433 
	C190.134659,407.850586 173.142715,400.637390 158.341827,388.589691 
	C148.688568,380.732086 142.706955,371.541565 145.082062,358.020813 
z"/>
<path fill="#4477B6" opacity="1.000000" stroke="none" 
	d="
M193.645584,172.327591 
	C199.569229,198.218231 215.087784,215.846558 241.078293,222.836624 
	C275.681305,232.143051 310.600189,210.839142 319.124725,176.128189 
	C319.402435,174.997467 319.685913,173.868179 320.063110,172.347321 
	C322.543243,183.970657 319.415710,195.084885 314.129730,205.644897 
	C302.245667,229.386078 276.074005,243.829483 250.931442,240.846954 
	C222.844070,237.515076 200.668945,218.262375 194.783432,191.448944 
	C193.454071,185.392685 193.853973,178.956833 193.645584,172.327591 
z"/>
</svg>