<svg version="1.1" id="Layer_1" xmlns="http://www.w3.org/2000/svg" xmlns:xlink="http://www.w3.org/1999/xlink" x="0px" y="0px"
	 width="100%" viewBox="0 0 1024 768" enable-background="new 0 0 1024 768" xml:space="preserve">
<path fill="#000000" opacity="1.000000" stroke="none" 
	d="
M665.823486,251.129333 
	C685.606934,268.340881 694.148132,290.545471 696.365906,315.616058 
	C699.373901,349.619690 691.199524,381.240448 673.680786,410.126526 
	C651.248596,447.114166 617.357483,467.626404 575.200256,475.332245 
	C560.027710,478.105591 544.744446,478.606079 529.421448,478.038544 
	C523.858215,477.832520 521.425476,479.872253 520.105225,485.193420 
	C516.217590,500.861664 511.744568,516.383850 507.756561,532.028442 
	C506.778900,535.863831 505.269592,537.523804 501.037445,537.477905 
	C481.541260,537.266785 462.041382,537.399963 442.542877,537.378296 
	C440.752930,537.376343 438.855652,537.743958 436.715851,536.007568 
	C438.433441,528.911438 440.174774,521.512634 442.017059,514.139038 
	C453.626343,467.674194 465.245148,421.211761 476.890594,374.755951 
	C480.247833,361.363556 483.799316,348.019043 487.048798,334.600983 
	C487.897766,331.095459 489.419189,329.695862 493.157959,329.724609 
	C513.155151,329.878265 533.154297,329.764771 553.152710,329.800507 
	C558.427063,329.809937 558.803955,330.331390 557.475098,335.772888 
	C551.319153,360.981476 545.112488,386.177643 538.928406,411.379364 
	C537.258606,418.184082 537.776062,418.817657 544.797058,418.903046 
	C581.132935,419.344879 607.484680,403.338776 622.953552,370.467041 
	C628.804199,358.034332 631.396545,344.552734 630.863220,330.643768 
	C630.144653,311.900055 618.682068,298.750305 600.114990,295.365051 
	C591.726013,293.835480 583.302795,293.695953 574.777283,293.773254 
	C554.120422,293.960602 533.450073,293.632660 512.798279,293.723572 
	C487.806610,293.833649 462.812958,293.769684 437.820831,293.871643 
	C425.272797,293.922852 412.980469,291.908813 400.863983,288.580505 
	C378.294617,282.380829 364.453003,266.852081 355.209198,246.338806 
	C353.638245,242.852646 352.390228,239.218613 351.066498,235.625824 
	C350.856506,235.055908 351.037048,234.342102 351.037048,233.765976 
	C352.679871,232.219360 354.597961,232.664398 356.356018,232.665054 
	C436.516266,232.695496 516.676819,232.657227 596.836487,232.897446 
	C612.477478,232.944321 628.098389,234.094543 643.190308,238.983109 
	C651.379639,241.635803 658.824951,245.558167 665.823486,251.129333 
z"/>
<path fill="#000000" opacity="1.000000" stroke="none" 
	d="
M422.246094,445.073975 
	C414.870148,474.324799 407.487396,503.147430 400.336517,532.027405 
	C399.320221,536.131958 397.694397,537.567017 393.301941,537.502930 
	C374.162842,537.223206 355.017334,537.393921 335.874237,537.360046 
	C333.918793,537.356567 331.884338,537.785461 329.756805,536.634705 
	C329.147919,532.131226 331.121338,527.960205 332.175415,523.721191 
	C340.675171,489.539642 349.413483,455.417328 357.870880,421.225464 
	C358.995605,416.678345 360.890228,415.336334 365.669220,415.387482 
	C384.786835,415.592163 403.910553,415.198456 423.032288,415.058105 
	C429.531128,415.010437 429.824249,415.382812 428.276855,421.491852 
	C426.318512,429.223389 424.303802,436.940643 422.246094,445.073975 
z"/>
<path fill="#000000" opacity="1.000000" stroke="none" 
	d="
M384.007050,379.232239 
	C378.919952,379.014008 374.272064,379.707581 369.789368,378.795898 
	C368.830292,375.251068 370.344788,372.448090 371.010101,369.627258 
	C373.831573,357.665283 376.972992,345.779175 379.910767,333.843994 
	C380.616699,330.976105 382.101685,329.756042 385.153564,329.768524 
	C405.624817,329.851959 426.096710,329.829376 446.568146,329.767639 
	C450.084534,329.757019 451.341736,330.816345 450.358612,334.561951 
	C446.899292,347.741730 443.572540,360.959595 440.461578,374.225403 
	C439.570312,378.026001 437.786591,379.349609 433.936005,379.311737 
	C417.460510,379.149689 400.982544,379.236389 384.007050,379.232239 
z"/>
</svg>